<svg version="1.1"
      xmlns="http://www.w3.org/2000/svg"
      xmlns:xlink="http://www.w3.org/1999/xlink"  id="snapshot-49089" width="250" height="250" viewBox="0 0 250 250"><desc>This image was made on Patterninja.com</desc><defs>
<!-- image 93204 -->
<g id="transformed-93204" data-image="93204" transform="translate(192.59691905618175, -19.632011235952593) rotate(339, 20.40308094381826, 25.632011235952593)"><g><svg version="1.1" width="40.80616188763652px" height="51.264022471905186px" viewBox="0 0 40.80616188763652 51.264022471905186"><g id="original-93204"><svg xmlns="http://www.w3.org/2000/svg" viewBox="0 0 55 69" xmlns:xlink="http://www.w3.org/1999/xlink" version="1.1" preserveAspectRatio="xMidYMid meet">
  <path fill-rule="evenodd" d="M5 69V5h50v64z" fill="rgba(144, 144, 143, 1)" stroke="none"/>
  <path fill-rule="evenodd" d="M0 64V0h36l14 14v50z" fill="rgba(255, 255, 255, 1)" stroke="none"/>
  <path fill-rule="evenodd" d="M36 0l14 14H36z" fill="rgba(210, 210, 210, 1)" stroke="none"/>
  <path fill-rule="evenodd" d="M10.5 49h29a.5.5 0 1 1 0 1h-29a.5.5 0 1 1 0-1z" fill="rgba(144, 144, 143, 1)" stroke="none"/>
  <path fill-rule="evenodd" d="M10.5 39h29a.5.5 0 1 1 0 1h-29a.5.5 0 1 1 0-1z" fill="rgba(144, 144, 143, 1)" stroke="none"/>
  <path fill-rule="evenodd" d="M10.5 29h29a.5.5 0 1 1 0 1h-29a.5.5 0 1 1 0-1z" fill="rgba(144, 144, 143, 1)" stroke="none"/>
  <path fill-rule="evenodd" d="M10.5 19h29a.5.5 0 1 1 0 1h-29a.5.5 0 1 1 0-1z" fill="rgba(144, 144, 143, 1)" stroke="none"/>
</svg>
</g></svg></g></g>
<!-- /image 93204 -->

<!-- image 63989 -->
<g id="transformed-63989" data-image="63989" transform="translate(74.69129421360455, 201.1505667587208) rotate(40, 17.30870578639545, 19.849433241279208)"><g><svg version="1.1" width="34.6174115727909px" height="39.698866482558415px" viewBox="0 0 34.6174115727909 39.698866482558415"><g id="original-63989"><svg xmlns="http://www.w3.org/2000/svg" viewBox="0 0 56 64" xmlns:xlink="http://www.w3.org/1999/xlink" version="1.1" preserveAspectRatio="xMidYMid meet">
  <path fill-rule="evenodd" d="M54 64H4V12h50a2 2 0 0 1 2 2v48a2 2 0 0 1-2 2z" fill="rgba(80, 158, 204, 1)" stroke="none"/>
  <path fill-rule="evenodd" d="M4 20h48v40H4z" fill="rgba(255, 255, 255, 1)" stroke="none"/>
  <path fill-rule="evenodd" d="M4 52h44v2H4v-2zm0 4h44v2H4v-2z" fill="rgba(204, 204, 204, 1)" stroke="none"/>
  <path fill-rule="evenodd" d="M54 50H12V2h42a2 2 0 0 1 2 2v44a2 2 0 0 1-2 2z" fill="rgba(132, 210, 255, 1)" stroke="none"/>
  <path fill-rule="evenodd" d="M4 50v10h8v4H2a2 2 0 0 1-2-2V4a2 2 0 0 1 2-2h10v48H4z" fill="rgba(77, 119, 143, 1)" stroke="none"/>
  <path fill-rule="evenodd" d="M40 0h12v20l-6-4-6 4z" fill="rgba(241, 65, 68, 1)" stroke="none"/>
</svg>
</g></svg></g></g>
<!-- /image 63989 -->

<!-- image 81566 -->
<g id="transformed-81566" data-image="81566" transform="translate(25.940071827716665, 78.74198952922971) rotate(28, 25.059928172283335, 24.258010470770287)"><g><svg version="1.1" width="50.11985634456667px" height="48.516020941540575px" viewBox="0 0 50.11985634456667 48.516020941540575"><g id="original-81566"><svg xmlns="http://www.w3.org/2000/svg" viewBox="0 0 70 68" xmlns:xlink="http://www.w3.org/1999/xlink" version="1.1" preserveAspectRatio="xMidYMid meet">
  <path fill-rule="evenodd" d="M14 65c9.113 0 11-2.853 11-8 0-.169-.02-.832-.025-1h20.05c0 .168-.025.831-.025 1 0 5.147 1.887 8 11 8v3H14v-3z" fill="rgba(81, 96, 120, 1)" stroke="none"/>
  <rect width="70" height="54" y="2" fill-rule="evenodd" rx="6" fill="rgba(111, 130, 164, 1)" stroke="none"/>
  <path fill-rule="evenodd" d="M70 47V5.998A5.993 5.993 0 0 0 64.002 0H5.998A5.995 5.995 0 0 0 0 5.998V47h70z" fill="rgba(165, 181, 211, 1)" stroke="none"/>
  <circle cx="35" cy="52" r="3" fill-rule="evenodd" fill="rgba(80, 96, 121, 1)" stroke="none"/>
</svg>
</g></svg></g></g>
<!-- /image 81566 -->

<!-- image 86689 -->
<g id="transformed-86689" data-image="86689" transform="translate(165, 94.00000000000001) rotate(0, 15, 14.99999999999999)"><g><svg version="1.1" width="30px" height="29.99999999999998px" viewBox="0 0 30 29.99999999999998"><g id="original-86689"><svg xmlns="http://www.w3.org/2000/svg" viewBox="0 0 71 71" xmlns:xlink="http://www.w3.org/1999/xlink" version="1.1" preserveAspectRatio="xMidYMid meet">
  <path fill-rule="evenodd" d="M40 8.024l7.648 7.652-35.181 35.2-7.648-7.652z" fill="rgba(69, 111, 216, 1)" stroke="none"/>
  <path fill-rule="evenodd" d="M46.65 14.676l8.648 8.651-35.181 35.2-8.648-8.652z" fill="rgba(86, 127, 229, 1)" stroke="none"/>
  <path fill-rule="evenodd" d="M54.3 22.327l8.648 8.652-35.181 35.2-8.648-8.651z" fill="rgba(50, 88, 182, 1)" stroke="none"/>
  <path fill-rule="evenodd" d="M55.3 1.9l13.767 13.774a6.5 6.5 0 0 1 0 9.182L46.12 1.9a6.489 6.489 0 0 1 9.18 0z" fill="rgba(255, 114, 177, 1)" stroke="none"/>
  <path fill-rule="evenodd" d="M47.12.9l22.945 22.956a1.083 1.083 0 0 1 0 1.53l-5.589 5.591a1.081 1.081 0 0 1-1.53 0L40 8.024a1.084 1.084 0 0 1 0-1.531L45.589.902A1.082 1.082 0 0 1 47.12.9z" fill="rgba(198, 198, 198, 1)" stroke="none"/>
  <path fill-rule="evenodd" d="M4.821 43.222l22.944 22.955L1 70z" fill="rgba(255, 200, 51, 1)" stroke="none"/>
  <path fill-rule="evenodd" d="M11.366 68.664L0 71l2.338-11.373z" fill="rgba(86, 127, 229, 1)" stroke="none"/>
</svg>
</g></svg></g></g>
<!-- /image 86689 -->

<!-- image 94651 -->
<g id="transformed-94651" data-image="94651" transform="translate(17, 225) rotate(270, 13, 12.999999999999996)"><g><svg version="1.1" width="26px" height="25.999999999999993px" viewBox="0 0 26 25.999999999999993"><g id="original-94651"><svg xmlns="http://www.w3.org/2000/svg" viewBox="0 0 71 71" xmlns:xlink="http://www.w3.org/1999/xlink" version="1.1" preserveAspectRatio="xMidYMid meet">
  <path fill-rule="evenodd" d="M40 8.024l7.648 7.652-35.181 35.2-7.648-7.652z" fill="rgba(69, 111, 216, 1)" stroke="none"/>
  <path fill-rule="evenodd" d="M46.65 14.676l8.648 8.651-35.181 35.2-8.648-8.652z" fill="rgba(86, 127, 229, 1)" stroke="none"/>
  <path fill-rule="evenodd" d="M54.3 22.327l8.648 8.652-35.181 35.2-8.648-8.651z" fill="rgba(50, 88, 182, 1)" stroke="none"/>
  <path fill-rule="evenodd" d="M55.3 1.9l13.767 13.774a6.5 6.5 0 0 1 0 9.182L46.12 1.9a6.489 6.489 0 0 1 9.18 0z" fill="rgba(255, 114, 177, 1)" stroke="none"/>
  <path fill-rule="evenodd" d="M47.12.9l22.945 22.956a1.083 1.083 0 0 1 0 1.53l-5.589 5.591a1.081 1.081 0 0 1-1.53 0L40 8.024a1.084 1.084 0 0 1 0-1.531L45.589.902A1.082 1.082 0 0 1 47.12.9z" fill="rgba(198, 198, 198, 1)" stroke="none"/>
  <path fill-rule="evenodd" d="M4.821 43.222l22.944 22.955L1 70z" fill="rgba(255, 200, 51, 1)" stroke="none"/>
  <path fill-rule="evenodd" d="M11.366 68.664L0 71l2.338-11.373z" fill="rgba(86, 127, 229, 1)" stroke="none"/>
</svg>
</g></svg></g></g>
<!-- /image 94651 -->
</defs><rect x="0" y="0" width="250" height="250" fill="rgba(255, 255, 255, 0)"></rect><use xlink:href="#transformed-93204" transform="translate(-250, -250)"></use><use xlink:href="#transformed-93204" transform="translate(0, -250)"></use><use xlink:href="#transformed-93204" transform="translate(250, -250)"></use><use xlink:href="#transformed-93204" transform="translate(-250, 0)"></use><use xlink:href="#transformed-93204" transform="translate(0, 0)"></use><use xlink:href="#transformed-93204" transform="translate(250, 0)"></use><use xlink:href="#transformed-93204" transform="translate(-250, 250)"></use><use xlink:href="#transformed-93204" transform="translate(0, 250)"></use><use xlink:href="#transformed-93204" transform="translate(250, 250)"></use><use xlink:href="#transformed-63989" transform="translate(-250, -250)"></use><use xlink:href="#transformed-63989" transform="translate(0, -250)"></use><use xlink:href="#transformed-63989" transform="translate(250, -250)"></use><use xlink:href="#transformed-63989" transform="translate(-250, 0)"></use><use xlink:href="#transformed-63989" transform="translate(0, 0)"></use><use xlink:href="#transformed-63989" transform="translate(250, 0)"></use><use xlink:href="#transformed-63989" transform="translate(-250, 250)"></use><use xlink:href="#transformed-63989" transform="translate(0, 250)"></use><use xlink:href="#transformed-63989" transform="translate(250, 250)"></use><use xlink:href="#transformed-81566" transform="translate(-250, -250)"></use><use xlink:href="#transformed-81566" transform="translate(0, -250)"></use><use xlink:href="#transformed-81566" transform="translate(250, -250)"></use><use xlink:href="#transformed-81566" transform="translate(-250, 0)"></use><use xlink:href="#transformed-81566" transform="translate(0, 0)"></use><use xlink:href="#transformed-81566" transform="translate(250, 0)"></use><use xlink:href="#transformed-81566" transform="translate(-250, 250)"></use><use xlink:href="#transformed-81566" transform="translate(0, 250)"></use><use xlink:href="#transformed-81566" transform="translate(250, 250)"></use><use xlink:href="#transformed-86689" transform="translate(-250, -250)"></use><use xlink:href="#transformed-86689" transform="translate(0, -250)"></use><use xlink:href="#transformed-86689" transform="translate(250, -250)"></use><use xlink:href="#transformed-86689" transform="translate(-250, 0)"></use><use xlink:href="#transformed-86689" transform="translate(0, 0)"></use><use xlink:href="#transformed-86689" transform="translate(250, 0)"></use><use xlink:href="#transformed-86689" transform="translate(-250, 250)"></use><use xlink:href="#transformed-86689" transform="translate(0, 250)"></use><use xlink:href="#transformed-86689" transform="translate(250, 250)"></use><use xlink:href="#transformed-94651" transform="translate(-250, -250)"></use><use xlink:href="#transformed-94651" transform="translate(0, -250)"></use><use xlink:href="#transformed-94651" transform="translate(250, -250)"></use><use xlink:href="#transformed-94651" transform="translate(-250, 0)"></use><use xlink:href="#transformed-94651" transform="translate(0, 0)"></use><use xlink:href="#transformed-94651" transform="translate(250, 0)"></use><use xlink:href="#transformed-94651" transform="translate(-250, 250)"></use><use xlink:href="#transformed-94651" transform="translate(0, 250)"></use><use xlink:href="#transformed-94651" transform="translate(250, 250)"></use></svg>